<svg width="18" height="18" viewBox="0 0 18 18" fill="none" xmlns="http://www.w3.org/2000/svg">
<path fill-rule="evenodd" clip-rule="evenodd" d="M17.3332 9.00002C17.3332 13.6024 13.6022 17.3334 8.99984 17.3334C4.39746 17.3334 0.666504 13.6024 0.666504 9.00002C0.666504 4.39765 4.39746 0.666687 8.99984 0.666687C13.6022 0.666687 17.3332 4.39765 17.3332 9.00002ZM7.5415 7.33335C7.5415 6.52794 8.19442 5.87502 8.99984 5.87502C9.80171 5.87502 10.4524 6.52222 10.4581 7.32275L10.458 7.33335C10.458 7.44826 10.4578 7.66239 10.3483 7.93004C10.241 8.19238 10.0113 8.54669 9.48634 8.89666C8.90548 9.2839 8.5877 9.70516 8.45054 10.1576C8.34813 10.4953 8.36448 10.8471 8.37214 11.012C8.37357 11.0427 8.3747 11.0669 8.3747 11.0834C8.3747 11.4285 8.65452 11.7084 8.9997 11.7084C9.34487 11.7084 9.6247 11.4285 9.6247 11.0834C9.6247 10.9872 9.62204 10.9126 9.61983 10.8504L9.61983 10.8503V10.8503C9.61486 10.7108 9.61215 10.6344 9.64676 10.5203C9.68112 10.4069 9.78001 10.2032 10.1797 9.93672C10.9048 9.45335 11.3001 8.90488 11.5052 8.40334C11.708 7.90763 11.708 7.49711 11.708 7.33388V7.33335H11.7082C11.7082 5.83758 10.4956 4.62502 8.99984 4.62502C7.50407 4.62502 6.2915 5.83758 6.2915 7.33335V7.75002C6.2915 8.0952 6.57133 8.37502 6.9165 8.37502C7.26168 8.37502 7.5415 8.0952 7.5415 7.75002V7.33335ZM8.99984 13.4167C9.34502 13.4167 9.62484 13.1369 9.62484 12.7917C9.62484 12.4465 9.34502 12.1667 8.99984 12.1667C8.65466 12.1667 8.37484 12.4465 8.37484 12.7917C8.37484 13.1369 8.65466 13.4167 8.99984 13.4167Z" fill="#818180"/>
</svg>
